<svg viewBox="0 0 512 512" xmlns="http://www.w3.org/2000/svg"><path d="m302 40c-5.519531 0-10 4.480469-10 10s4.480469 10 10 10 10-4.480469 10-10-4.480469-10-10-10zm0 0"/><path d="m382 40h-40c-5.523438 0-10 4.476562-10 10s4.476562 10 10 10h40c5.523438 0 10-4.476562 10-10s-4.476562-10-10-10zm0 0"/><path d="m462 40h-40c-5.523438 0-10 4.476562-10 10s4.476562 10 10 10h40c5.523438 0 10-4.476562 10-10s-4.476562-10-10-10zm0 0"/><path d="m482 0h-452c-16.542969 0-30 13.457031-30 30v452c0 16.542969 13.457031 30 30 30h452c16.542969 0 30-13.457031 30-30v-452c0-16.542969-13.457031-30-30-30zm10 482c0 5.515625-4.484375 10-10 10h-452c-5.515625 0-10-4.484375-10-10v-382h472zm0-402h-472v-50c0-5.515625 4.484375-10 10-10h452c5.515625 0 10 4.484375 10 10zm0 0"/><path d="m76 226h360c5.523438 0 10-4.476562 10-10v-60c0-5.523438-4.476562-10-10-10h-360c-5.523438 0-10 4.476562-10 10v60c0 5.523438 4.476562 10 10 10zm10-60h340v40h-340zm0 0"/><path d="m76 449h120c5.523438 0 10-4.476562 10-10v-160c0-5.523438-4.476562-10-10-10h-120c-5.523438 0-10 4.476562-10 10v160c0 5.523438 4.476562 10 10 10zm10-160h100v140h-100zm0 0"/><path d="m436 269h-180c-.097656 0-.191406.011719-.289062.015625-5.488282.15625-9.710938 4.683594-9.710938 9.984375v160c0 .058594.007812.117188.007812.175781.097657 5.519531 4.628907 9.824219 9.992188 9.824219h180c5.390625 0 9.894531-4.320312 9.992188-9.824219 0-.058593.007812-.117187.007812-.175781v-160c0-5.460938-4.453125-10-10-10zm-26.300781 20-63.699219 56.621094-63.699219-56.621094zm-143.699219 12.269531 64.949219 57.730469-64.949219 57.730469zm16.300781 127.730469 63.699219-56.621094 63.699219 56.621094zm143.699219-12.269531-64.949219-57.730469 64.949219-57.730469zm0 0"/></svg>